<?xml version="1.0" standalone="no"?>
<!DOCTYPE svg PUBLIC "-//W3C//DTD SVG 1.1//EN" "http://www.w3.org/Graphics/SVG/1.1/DTD/svg11.dtd">
<svg version="1.1" xmlns="http://www.w3.org/2000/svg" viewBox="0 0 289 374" width="289" height="374"><!-- svg-source:excalidraw --><metadata></metadata><defs><style class="style-fonts">
      </style></defs><rect x="0" y="0" width="289" height="374" fill="#ffffff"></rect><g stroke-linecap="round" transform="translate(54 90) rotate(0 106.5 137)"><path d="M32 0 C83.47 -0.66, 134.4 0.08, 181 0 M32 0 C75.79 0.62, 117.97 0.76, 181 0 M181 0 C201.44 0.52, 213.43 9.71, 213 32 M181 0 C204.59 -0.86, 211.4 11.09, 213 32 M213 32 C212.63 79.8, 212.27 127.25, 213 242 M213 32 C212.52 91.44, 212.96 152.92, 213 242 M213 242 C213.77 263.99, 201.72 274.02, 181 274 M213 242 C213.89 264.16, 203.76 276.22, 181 274 M181 274 C124.13 275.9, 69.87 274.98, 32 274 M181 274 C138.34 273.77, 96.59 273.03, 32 274 M32 274 C11.62 275.94, -1.75 263.99, 0 242 M32 274 C9.52 275.54, 0.79 262.64, 0 242 M0 242 C2.72 174.1, 1.13 106.48, 0 32 M0 242 C0.29 180.64, 0.3 118.18, 0 32 M0 32 C-1.04 10.51, 8.69 1.09, 32 0 M0 32 C0.73 11.46, 11.99 -1.71, 32 0" stroke="#1e1e1e" stroke-width="2" fill="none"></path></g><g stroke-linecap="round" transform="translate(132 175) rotate(0 48 69.5)"><path d="M24 0 C41.18 -0.37, 54.87 -0.2, 72 0 M24 0 C37.28 0.2, 51.44 -0.43, 72 0 M72 0 C86.96 -0.16, 94.03 9.09, 96 24 M72 0 C88.73 0.79, 97.32 6.29, 96 24 M96 24 C96.38 55.72, 95.26 87.92, 96 115 M96 24 C95.65 42.87, 95.59 63.14, 96 115 M96 115 C97.67 131.43, 89.06 137.31, 72 139 M96 115 C96.82 132.61, 87.58 137.06, 72 139 M72 139 C59.89 140.55, 48.43 140.8, 24 139 M72 139 C59.11 138.7, 45.97 138.91, 24 139 M24 139 C6.77 140.05, -1.74 129.81, 0 115 M24 139 C8.7 141.19, 1.41 130.89, 0 115 M0 115 C-1.85 82.26, 0.46 53.52, 0 24 M0 115 C0.63 78.96, -0.47 43.08, 0 24 M0 24 C-1.97 7.11, 8.36 -0.57, 24 0 M0 24 C-0.85 9.36, 6.06 -0.95, 24 0" stroke="#1e1e1e" stroke-width="2" fill="none"></path></g><g stroke-linecap="round" transform="translate(101 19) rotate(0 42.5 87.5)"><path d="M21.25 0 C35.85 0.49, 55.24 -0.59, 63.75 0 M21.25 0 C30.45 0.07, 40.36 0.38, 63.75 0 M63.75 0 C79.7 -0.74, 85.28 7.85, 85 21.25 M63.75 0 C77.28 -1.11, 83.18 6.45, 85 21.25 M85 21.25 C84.51 53.47, 87.6 85.69, 85 153.75 M85 21.25 C85.56 59.67, 85.09 99.93, 85 153.75 M85 153.75 C86.81 169.74, 78.61 173.75, 63.75 175 M85 153.75 C87.18 166.92, 77.56 173.37, 63.75 175 M63.75 175 C54.61 174.34, 47.79 173.39, 21.25 175 M63.75 175 C52.9 174.19, 42.17 174.77, 21.25 175 M21.25 175 C7.23 176.13, -1.16 169.25, 0 153.75 M21.25 175 C5.78 176.65, 1.6 167.36, 0 153.75 M0 153.75 C-0.5 110.8, -1.01 68.87, 0 21.25 M0 153.75 C-1.32 117.58, -0.9 78.84, 0 21.25 M0 21.25 C1.11 7.86, 7.56 1.04, 21.25 0 M0 21.25 C-1.34 4.95, 7.07 1.01, 21.25 0" stroke="#1e1e1e" stroke-width="2" fill="none"></path></g><g stroke-linecap="round" transform="translate(10 54) rotate(0 86 116)"><path d="M108.75 29.25 C118.81 40.7, 125.75 55.98, 150.25 87.75 M108.75 29.25 C125.98 52.93, 141.83 74.82, 150.25 87.75 M150.25 87.75 C170.91 117.95, 173.81 118.83, 150.25 146.25 M150.25 87.75 C172.8 115.56, 174.18 116, 150.25 146.25 M150.25 146.25 C137.16 162.26, 125.68 177.24, 108.75 202.75 M150.25 146.25 C135.75 166.2, 120.11 185.93, 108.75 202.75 M108.75 202.75 C87.81 231.68, 87.15 233.13, 65.25 202.75 M108.75 202.75 C85.67 233.53, 85.69 233.65, 65.25 202.75 M65.25 202.75 C50.13 183.12, 33.27 161.53, 21.75 146.25 M65.25 202.75 C53.12 187.36, 39.9 172.23, 21.75 146.25 M21.75 146.25 C-0.65 115.22, 1.11 117.77, 21.75 87.75 M21.75 146.25 C0.55 118.2, -1.34 114.86, 21.75 87.75 M21.75 87.75 C36.49 70.97, 47.88 52.67, 65.25 29.25 M21.75 87.75 C33.73 72.07, 45.12 55.99, 65.25 29.25 M65.25 29.25 C88.71 1.06, 88.84 1.68, 108.75 29.25 M65.25 29.25 C89.26 2.25, 85.4 -0.87, 108.75 29.25" stroke="#1e1e1e" stroke-width="2" fill="none"></path></g><g stroke-linecap="round" transform="translate(27 10) rotate(0 126 117)"><path d="M66.27 13.48 C77.54 5.71, 94.52 2.02, 108.72 0.34 C122.92 -1.34, 137.52 0.47, 151.45 3.37 C165.38 6.27, 180.16 10.8, 192.31 17.76 C204.46 24.72, 215.47 34.65, 224.35 45.13 C233.22 55.6, 240.88 68.11, 245.57 80.62 C250.26 93.13, 252.82 106.96, 252.5 120.19 C252.17 133.41, 248.94 147.38, 243.62 159.97 C238.3 172.56, 230.32 185.67, 220.58 195.75 C210.85 205.83, 197.93 214.16, 185.21 220.43 C172.5 226.7, 158.46 231.51, 144.29 233.39 C130.11 235.27, 114.32 234.4, 100.16 231.72 C85.99 229.05, 71.53 224.33, 59.29 217.33 C47.04 210.32, 35.49 200.48, 26.71 189.72 C17.93 178.95, 10.91 165.51, 6.61 152.71 C2.31 139.91, 0.65 126.02, 0.91 112.91 C1.17 99.79, 2.89 86.31, 8.16 74.02 C13.43 61.73, 22.12 49.59, 32.52 39.19 C42.93 28.78, 63.72 15.99, 70.59 11.57 C77.46 7.16, 72.84 10.86, 73.76 12.7 M185.56 13.39 C198.51 17.85, 210.76 29.69, 220.5 39.74 C230.24 49.78, 238.62 61.52, 243.99 73.66 C249.35 85.8, 252.19 99.13, 252.68 112.59 C253.18 126.05, 251.34 141.39, 246.96 154.4 C242.57 167.41, 235.21 180.07, 226.36 190.66 C217.5 201.25, 206.43 211.22, 193.81 217.94 C181.2 224.66, 164.72 228.33, 150.66 230.97 C136.6 233.61, 123.28 235.52, 109.45 233.78 C95.63 232.04, 80.53 226.95, 67.73 220.54 C54.93 214.14, 42.32 205.16, 32.64 195.34 C22.97 185.52, 15.05 174.09, 9.7 161.63 C4.35 149.16, 1 133.97, 0.54 120.56 C0.09 107.16, 2.71 94.03, 6.97 81.21 C11.22 68.38, 17.12 54.16, 26.08 43.61 C35.03 33.06, 48.37 24.93, 60.68 17.92 C73 10.92, 85.87 4.31, 99.94 1.58 C114.02 -1.15, 131.03 -0.66, 145.13 1.56 C159.22 3.78, 178.07 12.44, 184.52 14.88 C190.97 17.32, 184.83 14.4, 183.83 16.19" stroke="#1e1e1e" stroke-width="2" fill="none"></path></g></svg>